<svg xmlns="http://www.w3.org/2000/svg" viewBox="0 0 100 100" fill='#f2af08'>
  <path d="M37.301 51.87c-6.18 0-11.207 5.027-11.207 11.206S31.12 74.28 37.3 74.28s11.207-5.027 11.207-11.205c0-6.18-5.027-11.206-11.207-11.206m0 19.627c-4.644 0-8.423-3.778-8.423-8.421 0-4.644 3.779-8.422 8.423-8.422s8.423 3.778 8.423 8.422c0 4.643-3.779 8.421-8.423 8.421m37.305-10.815a6.81 6.81 0 0 0-6.8 6.8c0 3.75 3.05 6.8 6.8 6.8s6.801-3.05 6.801-6.8-3.05-6.8-6.8-6.8m0 10.816a4.02 4.02 0 0 1-4.016-4.016 4.02 4.02 0 0 1 4.016-4.016 4.02 4.02 0 0 1 4.017 4.016 4.02 4.02 0 0 1-4.017 4.016m-9.201-7.17h-14.58a1.392 1.392 0 1 0 0 2.784h14.58a1.392 1.392 0 1 0 0-2.784m-1.251-5.074a.696.696 0 1 0 0 1.392h4.216a.696.696 0 1 0 0-1.392zm0-2.33a.696.696 0 1 0 0 1.392h7.966a.696.696 0 1 0 0-1.392zm0-2.329a.696.696 0 1 0 0 1.392h7.966a.696.696 0 1 0 0-1.392z"/>
  <path d="M33.233 36.754h1.043l-1.652 13.119a1.4 1.4 0 0 0-.008.26 1.39 1.39 0 0 0 1.742 1.435c.99-.26 2.016-.391 3.05-.391a11.95 11.95 0 0 1 11.645 9.103 1.39 1.39 0 0 0 1.38 1.214h5.019a1.39 1.39 0 0 0 1.388-1.504l-.52-6.425h15.246c-.004 1.966.006 2.904.006 5.125a1.392 1.392 0 0 0 2.779-.117v-6.4c0-.769-.624-1.392-1.393-1.392h-9.386v-6.788l1.45-1.088a1.392 1.392 0 1 0-1.67-2.227l-2.008 1.505c-.35.263-.557.675-.557 1.114v7.484h-4.685c-.22-2.902-.759-9.906-1.02-12.614-.216-2.248-2.058-4.049-4.285-4.189-.055-.003-.11-.007-13.257-.009h-4.308a1.392 1.392 0 1 0 0 2.785m2.37 11.75 1.48-11.75h5v12.391a14.9 14.9 0 0 0-6.48-.642m16.707-10.07c.329 3.409 1.105 13.74 1.112 13.843v.004l.001.004.52 6.425h-2.44a14.7 14.7 0 0 0-6.635-8.31V36.754c2.988.001 5.448.002 5.787.004.86.07 1.57.784 1.655 1.675"/>
  <path fill-rule="evenodd" clip-rule="evenodd" d="M91.39 55.201c.488.235.797.727.797 1.268v4.481l2.754 9.177a1.406 1.406 0 0 1-1.347 1.81h-8.438a1.406 1.406 0 0 1-1.406-1.406V66.32l-5.57-7.283-1.984-.794a1.406 1.406 0 1 1 1.045-2.611l2.305.922 6.267 2.089 4.09-3.272c.422-.338 1-.404 1.487-.17m-6.88 5.972-1.55-.517 1.343 1.756zm2.052 4.787v3.165h5.142l-2.23-7.433a2.4 2.4 0 0 1-.099-.673v-1.624l-1.983 1.586zm-70.65-18.818 1.77 4.122c.59 1.359 1.02 2.613 1.18 3.756.164 1.163.06 2.298-.517 3.316-.573 1.009-1.506 1.719-2.643 2.242-1.128.52-2.548.898-4.238 1.198a1.4 1.4 0 0 1-1.134-.295L5.518 57.56a1.406 1.406 0 0 1 0-2.18l6.218-5.072 1.627-3.241c.526-1.047 2.087-1 2.55.076M14.52 51.03l-.405.808a1.4 1.4 0 0 1-.369.459l-5.114 4.171 2.969 2.42c1.268-.253 2.223-.541 2.925-.864.805-.371 1.184-.745 1.372-1.075.182-.322.285-.783.18-1.538-.11-.774-.425-1.759-.977-3.028l-.003-.007z"/>
  <path fill-rule="evenodd" clip-rule="evenodd" d="M8.07 26.175a1.4 1.4 0 0 1 1.331-.015l20.625 10.781c.464.243.755.723.755 1.246v13.594a1.406 1.406 0 1 1-2.812 0V39.04L9.98 29.637 8.556 47.308l1.168-2.92 1.383-10.14a1.406 1.406 0 0 1 2.117-1.016c3.5 2.112 7.214 4.342 10.114 7.242.661.661.974 1.645 1.152 2.534.19.948.277 2.078.3 3.283.045 2.416-.167 5.325-.462 8.1-.296 2.784-.68 5.474-.99 7.465-.097.621-.186 1.175-.264 1.644h.676a1.406 1.406 0 1 1 0 2.812h-2.344a1.406 1.406 0 0 1-1.383-1.657c.633-3.5 1.132-7.025 1.508-10.562.291-2.733.49-5.507.447-7.75-.021-1.123-.103-2.067-.246-2.784-.069-.344-.143-.817-.383-1.096-1.295-1.296-3.647-2.985-5.762-4.395-.723-.482-1.405-.922-1.987-1.292l-1.113 8.164a1.4 1.4 0 0 1-.088.332L7.712 56.991a1.406 1.406 0 0 1-2.707-.635l2.343-29.063c.038-.47.31-.89.723-1.118"/>
</svg>
