<svg data-v-0dd9719b="" version="1.0" xmlns="http://www.w3.org/2000/svg" xmlns:xlink="http://www.w3.org/1999/xlink" width="100%" height="100%" viewBox="0 0 340.000000 250.000000" preserveAspectRatio="xMidYMid meet" color-interpolation-filters="sRGB" style="margin: auto;"> <rect data-v-0dd9719b="" x="0" y="0" width="100%" height="100%" fill="#333333" fill-opacity="0" class="background"></rect> <!----> <g data-v-0dd9719b="" fill="#ffffff" class="iconblsvg-g iconsvg" transform="translate(70.70999908447266,81.2794303894043)"><g class="tp-name" transform="translate(0,0)"><g data-gra="path-name" transform="translate(0, 26.683136505126953)"><g transform="scale(1)"><path d="M22.72-40.64L17.09-14.53Q16.77-13.12 16.58-12.1 16.38-11.07 16.38-10.18L16.38-10.18Q16.38-7.94 17.95-6.59 19.52-5.25 22.59-5.25L22.59-5.25Q24.83-5.25 26.27-6.02 27.71-6.78 28.64-8.06 29.57-9.34 30.11-11.01 30.66-12.67 31.04-14.53L31.04-14.53 36.48-40.64 42.3-40.64 36.74-14.4Q36.1-11.33 34.88-8.64 33.66-5.95 31.39-3.9 29.12-1.86 25.54-0.67 21.95 0.51 16.64 0.51L16.64 0.51Q9.28 0.51 5.76-1.89 2.24-4.29 2.24-9.28L2.24-9.28Q2.24-11.52 2.82-14.98 3.39-18.43 4.29-22.46L4.29-22.46 8.19-40.64 22.72-40.64ZM38.21 0L39.17-4.99 56.26-23.23 43.26-23.23 44.1-27.52 71.04-27.52 70.02-22.91 53.38-4.29 67.52-4.29 66.75 0 38.21 0Z" transform="translate(-2.240000009536743, 40.63999938964844)"></path></g></g> <g transform="translate(41.39069175720215, 0)"><g><g class="imagesvg"><g><rect fill="#ffffff" fill-opacity="0" stroke-width="2" x="0" y="0" width="57.818622551039994" height="38.518271999999996" class="image-rect"></rect> <svg filter="url(#colors7765601274)" x="0" y="0" width="57.818622551039994" height="38.518271999999996" filtersec="colorsf8349866929" class="image-svg-svg primary" style="overflow: visible;"><svg xmlns="http://www.w3.org/2000/svg" x="0" y="0" viewBox="144.20001220703125 282.1999816894531 701.2999877929688 467.2000427246094" xml:space="preserve"><path d="M383.9 320.3V380c-.6 16.2-10.1 25.7-28.5 28.6H261v-6.2h4.5v-77.6H261v-42.6h-5.4v42.6h-4.4v77.6h4.4v6.2h-60.2c-31.8 1.3-48.9 16.3-51.2 45V534c.2 25.1 12.2 37.1 36.2 36.2h363.1c11.9.6 21.6-5.3 29.2-17.7l42.1-82.2c6.7-12.3 6.7-24.7 0-37l-45.7-108.2c-4.6-15.6-16.2-24.1-34.8-25.6H410.5C394.1 299 385.3 305.9 383.9 320.3M451 326c6.9 0 10.3 3.4 10.3 10.3v85.5c0 6.9-3.4 10.3-10.3 10.3h-29.4c-6.9 0-10.3-3.4-10.3-10.3v-85.5c0-6.9 3.4-10.3 10.3-10.3H451M539.3 326c6.9 0 10.4 3.4 10.4 10.3l20.7 143.2c0 3.1-.7 5.6-2.2 7.3-.8.9-1.8 1.7-3 2.2-1.4.6-3.2.9-5.2.9h-23.4c-8 .3-13.2-3.2-15.4-10.4l-10.7-38c-1.7-6.1-5.6-9.3-11.7-9.5h-8.2c-6.9 0-10.4-3.4-10.4-10.3v-85.5c0-6.9 3.5-10.3 10.4-10.3H539.3M280.4 490.5c1.4 1.4 1.3 2.8-.1 4.2l-6.1 6.1c-.7.7-1.4 1.1-2 1.2-.9 0-1.6-.4-2.3-1l-45.7-45.6c-1.5-1.5-1.5-3 0-4.5l6.2-6.1c1.5-1.5 2.9-1.5 4.4 0L280.4 490.5M273.3 455.2c-1.4-1.4-1.5-2.9-.1-4.4l6.1-6.1c1.5-1.5 3-1.5 4.5-.1l45.6 45.9c1.4 1.4 1.3 2.8-.1 4.2l-6.1 6.1c-.7.7-1.3 1.1-1.9 1.2-.8 0-1.5-.4-2.2-1L273.3 455.2M181.3 444.8c1.5-1.5 2.9-1.5 4.4 0l45.6 45.7c1.4 1.4 1.3 2.8-.1 4.2l-6.1 6.1c-.7.7-1.3 1.1-1.9 1.2-.9 0-1.6-.4-2.3-1l-45.7-45.6c-1.5-1.5-1.5-3 0-4.5L181.3 444.8M248.6 591c-43.7 0-79.2 35.5-79.2 79.2s35.5 79.2 79.2 79.2 79.2-35.5 79.2-79.2S292.3 591 248.6 591zM248.6 702.3c-17.7 0-32.1-14.4-32.1-32.1s14.4-32.1 32.1-32.1c17.7 0 32.1 14.4 32.1 32.1S266.3 702.3 248.6 702.3zM581.3 591c-43.7 0-79.2 35.5-79.2 79.2s35.5 79.2 79.2 79.2c43.7 0 79.2-35.5 79.2-79.2S625 591 581.3 591zM581.3 702.3c-17.7 0-32.1-14.4-32.1-32.1s14.4-32.1 32.1-32.1c17.7 0 32.1 14.4 32.1 32.1S599 702.3 581.3 702.3z"></path><path d="M516.5 587.8H322.1l-12.3 18.3c.2.2.4.5.7.7.1.1.2.2.2.2 8 7.6 14.3 16.3 19 26.2 4.8 10.2 7.5 20.9 8.2 32.2H493c.5-10 2.8-19.7 6.8-29 4.4-10.5 10.6-19.7 18.6-27.7 2.7-2.7 5.6-5.2 8.6-7.5L516.5 587.8zM409.4 653.5c-1.1 1.2-2.5 1.8-4.2 1.8h-34.7c-1.7 0-3.1-.6-4.2-1.8-1.1-1.2-1.6-2.6-1.6-4.2 0-1.7.5-3.1 1.6-4.2 1.2-1.1 2.6-1.7 4.2-1.7h34.7c1.6 0 3 .6 4.2 1.7 1.2 1.2 1.8 2.6 1.8 4.2C411.1 651 410.5 652.4 409.4 653.5zM833.4 555 845.5 319c-1.8-20.1-15.9-24.2-42.4-12.3l-196.8 67.1 7.3 17.3 156.1-55.7c7.5-1.8 12.3.3 14.5 6.2 2.2 5.9-.9 10-9.2 12.4l-154 54.9 10.4 24.5L772 383.6c10.8-4.1 17 1 18.8 15.3L805 594.2l-61.1 51.3h-22.7c15 12.7 31.8 21.2 50.6 25.5 20.4 4.7 37.3 2.8 50.5-5.8 10.2-6.6 16.5-15.3 19-26.3 2.4-10.1 1.6-23-2.2-38.8C848.9 582.4 847 567.4 833.4 555zM832.5 586.8c-2.2 2.2-4.9 3.4-8 3.4-3.1 0-5.8-1.1-8-3.4-2.2-2.2-3.3-4.8-3.3-8 0-3.1 1.1-5.8 3.3-8 2.2-2.2 4.9-3.3 8-3.3 3.1 0 5.8 1.1 8 3.3 2.2 2.2 3.3 4.9 3.3 8C835.8 582 834.7 584.6 832.5 586.8z"></path></svg></svg> <defs><filter id="colors7765601274"><feColorMatrix type="matrix" values="0 0 0 0 0.95703125  0 0 0 0 0.5  0 0 0 0 0.125  0 0 0 1 0" class="icon-fecolormatrix"></feColorMatrix></filter> <filter id="colorsf8349866929"><feColorMatrix type="matrix" values="0 0 0 0 0.99609375  0 0 0 0 0.99609375  0 0 0 0 0.99609375  0 0 0 1 0" class="icon-fecolormatrix"></feColorMatrix></filter> <filter id="colorsb5451273436"><feColorMatrix type="matrix" values="0 0 0 0 0  0 0 0 0 0  0 0 0 0 0  0 0 0 1 0" class="icon-fecolormatrix"></feColorMatrix></filter></defs></g></g></g></g> <g data-gra="path-name-1" fill="#ffffff" transform="translate(71.80000305175781, 26.683136505126953)"><g transform="scale(1)"><path d="M16.77-23.42L17.15-23.42Q18.5-24.7 20.16-25.79L20.16-25.79Q21.63-26.69 23.68-27.46 25.73-28.22 28.29-28.22L28.29-28.22Q31.36-28.22 32.86-26.82 34.37-25.41 34.56-23.36L34.56-23.36 34.94-23.36Q36.42-24.7 38.14-25.79L38.14-25.79Q39.62-26.69 41.6-27.46 43.58-28.22 45.82-28.22L45.82-28.22Q49.15-28.22 51.23-26.4 53.31-24.58 53.31-21.7L53.31-21.7Q53.31-20.22 52.8-17.79 52.29-15.36 51.65-12.48L51.65-12.48 48.96 0 36.35 0 39.81-16.7Q40-17.66 40.19-18.56 40.38-19.46 40.38-20.03L40.38-20.03Q40.38-20.93 39.87-21.54 39.36-22.14 38.4-22.14L38.4-22.14Q37.18-22.14 36.13-21.28 35.07-20.42 34.5-19.84L34.5-19.84 30.34 0 18.37 0 21.89-16.7Q22.02-17.54 22.21-18.4 22.4-19.26 22.4-19.97L22.4-19.97Q22.4-20.93 21.92-21.54 21.44-22.14 20.48-22.14L20.48-22.14Q19.33-22.14 18.27-21.31 17.22-20.48 16.64-19.9L16.64-19.9 12.42 0-0.64 0 5.18-27.52 15.62-27.52 16.77-23.42ZM58.5-19.46L59.71-25.15Q62.98-26.75 66.4-27.49 69.82-28.22 74.05-28.22L74.05-28.22Q78.14-28.22 80.83-27.58 83.52-26.94 85.12-25.73 86.72-24.51 87.36-22.85 88-21.18 88-19.07L88-19.07Q88-17.86 87.84-16.45 87.68-15.04 87.49-14.08L87.49-14.08 84.48 0 74.18 0 73.02-4.1 72.64-4.1Q70.59-1.86 67.87-0.67 65.15 0.51 62.46 0.51L62.46 0.51Q60.93 0.51 59.46 0.06 57.98-0.38 56.83-1.31 55.68-2.24 54.98-3.68 54.27-5.12 54.27-7.17L54.27-7.17Q54.27-10.5 56.1-12.45 57.92-14.4 60.9-15.39 63.87-16.38 67.62-16.64 71.36-16.9 75.14-16.9L75.14-16.9Q75.26-17.54 75.46-18.72 75.65-19.9 75.65-20.8L75.65-20.8Q75.65-21.95 75.04-22.94 74.43-23.94 72.51-23.94L72.51-23.94Q70.27-23.94 69.22-22.62 68.16-21.31 67.84-19.46L67.84-19.46 58.5-19.46ZM73.41-8.96L74.43-13.89 73.28-13.89Q71.42-13.89 70.11-13.41 68.8-12.93 68-12.16 67.2-11.39 66.82-10.43 66.43-9.47 66.43-8.51L66.43-8.51Q66.43-6.98 67.23-6.21 68.03-5.44 69.12-5.44L69.12-5.44Q70.46-5.44 71.78-6.4 73.09-7.36 73.41-8.96L73.41-8.96ZM107.2-23.42L107.58-23.42Q108.93-24.7 110.59-25.79L110.59-25.79Q112.06-26.69 114.05-27.46 116.03-28.22 118.46-28.22L118.46-28.22Q121.79-28.22 123.97-26.53 126.14-24.83 126.14-21.89L126.14-21.89Q126.14-21.06 125.95-19.87 125.76-18.69 125.5-17.41 125.25-16.13 124.96-14.82 124.67-13.5 124.48-12.48L124.48-12.48 121.79 0 108.8 0 112.32-16.7Q112.45-17.54 112.64-18.4 112.83-19.26 112.83-19.97L112.83-19.97Q112.83-20.93 112.35-21.54 111.87-22.14 110.91-22.14L110.91-22.14Q109.76-22.14 108.7-21.31 107.65-20.48 107.07-19.9L107.07-19.9 102.85 0 89.79 0 95.62-27.52 106.05-27.52 107.2-23.42Z" transform="translate(0.64000004529953, 40.63999938964844)"></path></g></g></g> <g data-gra="path-slogan" fill-rule="" class="tp-slogan iconsvg-slogansvg" fill="#f58020" transform="translate(5,73.83313751220703)"><rect x="0" height="1" y="6.303999900817871" width="49.2672004699707"></rect> <rect height="1" y="6.303999900817871" width="49.2672004699707" x="139.31280136108398"></rect> <g transform="translate(52.2672004699707,0)"><g transform="scale(1.6200000000000006)"><path d="M5.35-8.40L5.35-8.40L6.79-8.40L6.79 0L5.35 0L5.35-3.48L1.86-3.48L1.86 0L0.42 0L0.42-8.40L1.86-8.40L1.86-4.92L5.35-4.92L5.35-8.40ZM12.71-8.40L12.71-8.40L16.50 0L14.92 0L14.27-1.44L14.27-1.44L13.62-2.88L13.62-2.88L11.92-6.65L10.21-2.88L12.40-2.88L13.04-1.44L9.56-1.44L8.92 0L7.33 0L11.12-8.40L12.71-8.40ZM22.69-6.96L22.69-6.96L18.48-6.96L18.48-4.92L21.61-4.92L21.97-3.48L18.48-3.48L18.48 0L17.04 0L17.04-8.40L22.69-8.40L22.69-6.96ZM29.39-5.39L29.39-5.39Q29.39-4.93 29.26-4.52Q29.14-4.10 28.91-3.76Q28.69-3.41 28.37-3.13Q28.06-2.84 27.67-2.66L27.67-2.66L29.39 0L27.67 0L26.15-2.36L25.16-2.36L25.75-3.80L26.38-3.80Q27.02-3.80 27.49-4.27L27.49-4.27Q27.71-4.50 27.83-4.79Q27.95-5.08 27.95-5.39L27.95-5.39Q27.95-5.70 27.83-5.99Q27.71-6.28 27.49-6.49L27.49-6.49Q27.02-6.96 26.38-6.96L26.38-6.96L24.67-6.96L24.67-6.17L24.67-3.80L24.67-2.36L24.67 0L23.23 0L23.23-2.36L23.23-6.17L23.23-8.40L26.38-8.40Q27.00-8.40 27.55-8.16Q28.09-7.92 28.50-7.51Q28.91-7.10 29.15-6.56Q29.39-6.01 29.39-5.39ZM31.67-8.39L31.67-8.39L31.67 0L30.23 0L30.23-8.39L31.67-8.39ZM38.75-8.40L38.75-8.40L40.45-8.40L37.21-3.24L37.08-3.04L37.08-2.84L37.08 0L35.64 0L35.64-3.04L32.27-8.40L33.97-8.40L36.36-4.60L38.75-8.40ZM43.57-8.40L43.57-8.40L47.36 0L45.78 0L45.13-1.44L45.13-1.44L44.48-2.88L44.48-2.88L42.78-6.65L41.08-2.88L43.26-2.88L43.91-1.44L40.43-1.44L39.78 0L38.20 0L41.99-8.40L43.57-8.40ZM52.30-8.40L52.30-8.40L52.30-6.96L49.84-6.96L49.84 0L48.40 0L48.40-6.96L45.92-6.96L45.92-8.40L48.40-8.40L49.84-8.40L52.30-8.40Z" transform="translate(-0.42, 8.4)"></path></g></g></g></g><defs v-gra="od"></defs></svg>