<svg style="max-height: 500px" color-interpolation-filters="sRGB" preserveAspectRatio="xMidYMid meet" viewBox="85 89.5 169.5 72" xmlns:xlink="http://www.w3.org/1999/xlink" xmlns="http://www.w3.org/2000/svg" version="1.0" data-v-0dd9719b="" width="169.5" height="72"> <rect class="background" fill-opacity="0" fill="#ffffff" height="100%" width="100%" y="0" x="0" data-v-0dd9719b=""/>  <g transform="translate(88.875,91.35411071777344)" class="icon-text-wrapper icon-svg-group iconsvg" fill="#333333" data-v-0dd9719b=""><g transform="translate(49.92499923706055,0)" class="iconsvg-imagesvg"><g><rect class="image-rect" height="20.59997425003218" width="38.399999999999984" y="0" x="0" stroke-width="2" fill-opacity="0" fill="#333333"/> <svg style="overflow: visible;" class="image-svg-svg primary" height="20.59997425003218" width="38.399999999999984" y="0" x="0" filter="url(#colors2425926655)"><svg y="0px" x="0px" viewBox="5.000000476837158 25.999984741210938 90 48.28111267089844" xmlns="http://www.w3.org/2000/svg"><path d="M37.3011 51.8701C31.1212 51.8701 26.0938 56.8969 26.0938 63.0756C26.0938 69.2543 31.1212 74.2811 37.3011 74.2811C43.4808 74.2811 48.5084 69.2543 48.5084 63.0756C48.5084 56.8969 43.4808 51.8701 37.3011 51.8701ZM37.3011 71.4971C32.6568 71.4971 28.8785 67.7192 28.8785 63.0756C28.8785 58.432 32.6568 54.6542 37.3011 54.6542C41.9453 54.6542 45.7237 58.432 45.7237 63.0756C45.7237 67.7192 41.9453 71.4971 37.3011 71.4971Z"/><path d="M74.6054 60.681C70.8552 60.681 67.8042 63.7315 67.8042 67.481C67.8042 71.2306 70.8552 74.281 74.6054 74.281C78.3555 74.281 81.4063 71.2306 81.4063 67.481C81.4063 63.7315 78.3555 60.681 74.6054 60.681ZM74.6054 71.497C72.3906 71.497 70.5889 69.6955 70.5889 67.481C70.5889 65.2666 72.3906 63.4651 74.6054 63.4651C76.8201 63.4651 78.6217 65.2666 78.6217 67.481C78.6217 69.6955 76.8201 71.497 74.6054 71.497Z"/><path d="M65.405 64.3268H50.8244C50.0554 64.3268 49.432 64.9501 49.432 65.7188C49.432 66.4875 50.0554 67.1108 50.8244 67.1108H65.405C66.1738 67.1108 66.7973 66.4875 66.7973 65.7188C66.7973 64.9501 66.1738 64.3268 65.405 64.3268Z"/><path d="M64.1544 59.2527C63.7698 59.2527 63.4583 59.5643 63.4583 59.9487C63.4583 60.3331 63.7698 60.6447 64.1544 60.6447H68.3703C68.7549 60.6447 69.0665 60.3331 69.0665 59.9487C69.0665 59.5643 68.7549 59.2527 68.3703 59.2527H64.1544Z"/><path d="M64.1544 56.9231C63.7698 56.9231 63.4583 57.2347 63.4583 57.6191C63.4583 58.0035 63.7698 58.3151 64.1544 58.3151H72.1203C72.5049 58.3151 72.8165 58.0035 72.8165 57.6191C72.8165 57.2347 72.5049 56.9231 72.1203 56.9231H64.1544Z"/><path d="M64.1544 54.5935C63.7698 54.5935 63.4583 54.9052 63.4583 55.2895C63.4583 55.6739 63.7698 55.9855 64.1544 55.9855H72.1203C72.5049 55.9855 72.8165 55.6739 72.8165 55.2895C72.8165 54.9052 72.5049 54.5935 72.1203 54.5935H64.1544Z"/><path d="M33.2326 36.7538L34.276 36.7536L32.6237 49.8729C32.6126 49.9607 32.6108 50.0475 32.6161 50.1327C32.6069 50.2775 32.6194 50.4259 32.6581 50.5738C32.8528 51.3174 33.6127 51.7623 34.3578 51.5677C35.3476 51.3084 36.3739 51.177 37.4077 51.177C42.9528 51.177 47.7263 54.9153 49.0534 60.2797C49.1409 60.9643 49.7246 61.4939 50.4331 61.4939H55.4518C55.8405 61.4939 56.2116 61.3315 56.4751 61.0458C56.7387 60.7601 56.8708 60.3772 56.8395 59.9898L56.3202 53.5653H71.5661C71.5625 55.5314 71.572 56.4689 71.572 58.6896C71.6315 59.4035 72.229 59.9647 72.9584 59.9647C73.7274 59.9647 74.3508 59.3415 74.3508 58.5727V52.1733C74.3508 51.4045 73.7274 50.7813 72.9584 50.7813H63.572V43.9927L65.0219 42.9054C65.6373 42.4442 65.7618 41.5716 65.3004 40.9566C64.8393 40.3418 63.9668 40.217 63.3513 40.6783L61.3445 42.1831C60.9937 42.4459 60.7874 42.8585 60.7874 43.2967V50.7813H56.1019C55.8812 47.8794 55.343 40.8753 55.0821 38.1668C54.8657 35.9187 53.0238 34.118 50.7968 33.9782C50.7416 33.9747 50.6864 33.9715 37.5398 33.9692C36.104 33.969 34.6682 33.9693 33.2324 33.9698C32.4633 33.9699 31.84 34.5933 31.8403 35.3622C31.8405 36.1308 32.4638 36.7538 33.2326 36.7538ZM35.6028 48.5035L37.0827 36.7532C38.5886 36.7534 40.3438 36.7538 42.0837 36.7543V49.1452C40.6082 48.6573 39.0356 48.3929 37.4077 48.3929C36.8029 48.3929 36.2002 48.4307 35.6028 48.5035ZM52.3102 38.4336C52.6386 41.8427 53.4146 52.1735 53.4224 52.2774L53.4229 52.2805L53.423 52.2854L53.9423 58.7099H51.5022C50.3747 55.1269 47.9731 52.2069 44.8684 50.3994V36.7551C47.8561 36.7561 50.3162 36.7575 50.6546 36.7591C51.5157 36.8293 52.2245 37.5434 52.3102 38.4336Z"/><path d="M91.3904 55.2014C91.8776 55.4356 92.1875 55.9283 92.1875 56.4689V60.95L94.9407 70.1273C95.0684 70.5531 94.9873 71.0142 94.722 71.3708C94.4566 71.7274 94.0383 71.9376 93.5937 71.9376L85.1562 71.9376C84.3796 71.9376 83.75 71.308 83.75 70.5313V66.3199L78.1807 59.037L76.1965 58.2433C75.4754 57.9549 75.1246 57.1365 75.4131 56.4154C75.7015 55.6943 76.5199 55.3435 77.241 55.632L79.5464 56.5541L85.8127 58.6428L89.9028 55.3708C90.3249 55.0331 90.9032 54.9673 91.3904 55.2014ZM84.5091 61.173L82.9597 60.6565L84.3025 62.4124L84.5091 61.173ZM86.5625 65.9603V69.1251L91.7037 69.1251L89.4738 61.6922C89.4083 61.4737 89.375 61.2469 89.375 61.0188V59.3947L87.3924 60.9808L86.5625 65.9603Z" clip-rule="evenodd" fill-rule="evenodd"/><path d="M15.9121 47.1422L17.6813 51.2638C18.2724 52.6227 18.7019 53.8773 18.8623 55.0202C19.0255 56.1833 18.9214 57.3183 18.3445 58.3359C17.7724 59.3449 16.8392 60.0549 15.7024 60.5783C14.5742 61.0978 13.1544 61.4759 11.4641 61.7759C11.0612 61.8474 10.6471 61.7399 10.3299 61.4813L5.51782 57.5587C5.19025 57.2917 5.00014 56.8915 5.00008 56.4689C5.00002 56.0463 5.19003 55.6461 5.51752 55.379L11.7359 50.3072L13.3631 47.0659C13.8888 46.0188 15.4499 46.0655 15.9121 47.1422ZM14.5202 51.0297L14.1145 51.8378C14.0255 52.015 13.9001 52.1714 13.7465 52.2966L8.63163 56.4684L11.6005 58.8885C12.8695 58.6346 13.8238 58.347 14.5262 58.0236C15.3314 57.6529 15.7104 57.2793 15.8979 56.9487C16.0804 56.6267 16.183 56.1661 16.0771 55.4111C15.9684 54.637 15.6533 53.652 15.101 52.3827L15.0982 52.3763L14.5202 51.0297Z" clip-rule="evenodd" fill-rule="evenodd"/><path d="M8.07051 26.1751C8.48356 25.9471 8.98339 25.9414 9.40149 26.16L30.0265 36.9412C30.4904 37.1838 30.7813 37.664 30.7813 38.1875V51.7812C30.7813 52.5579 30.1517 53.1875 29.375 53.1875C28.5984 53.1875 27.9688 52.5579 27.9688 51.7812V39.0392L9.981 29.6365L8.55585 47.3084L9.72383 44.3884L11.1067 34.2475C11.1706 33.7791 11.4655 33.3742 11.8916 33.1697C12.3178 32.9652 12.8182 32.9884 13.2235 33.2316C16.7244 35.3441 20.4382 37.5744 23.3381 40.4744C23.9991 41.1353 24.3122 42.119 24.4899 43.0075C24.6797 43.9565 24.7671 45.0859 24.7898 46.2908C24.8354 48.7068 24.6232 51.6163 24.3281 54.3909C24.0319 57.1748 23.6475 59.8647 23.3378 61.8558C23.2411 62.4772 23.1516 63.0313 23.0742 63.4999H23.75C24.5267 63.4999 25.1563 64.1295 25.1563 64.9062C25.1563 65.6828 24.5267 66.3124 23.75 66.3124H21.4063C20.9893 66.3124 20.5938 66.1274 20.3266 65.8072C20.0594 65.4871 19.9481 65.0649 20.0227 64.6546C20.6562 61.1549 21.1551 57.6299 21.5314 54.0934C21.8221 51.3602 22.0201 48.5861 21.9778 46.3439C21.9566 45.2197 21.8755 44.2764 21.732 43.5591C21.6631 43.2146 21.5894 42.7416 21.3494 42.4631C20.0536 41.1673 17.702 39.4784 15.5872 38.0685C14.864 37.5864 14.1822 37.1458 13.6004 36.7762L12.4871 44.94C12.4716 45.0539 12.4422 45.1655 12.3995 45.2722L7.71197 56.991C7.45367 57.6367 6.76213 57.9967 6.08503 57.8378C5.40794 57.6789 4.94869 57.0489 5.0046 56.3557L7.34835 27.2932C7.38627 26.823 7.65747 26.4031 8.07051 26.1751Z" clip-rule="evenodd" fill-rule="evenodd"/></svg></svg> <defs><filter id="colors2425926655"><feColorMatrix class="icon-fecolormatrix" values="0 0 0 0 0.9453125  0 0 0 0 0.68359375  0 0 0 0 0.03125  0 0 0 1 0" type="matrix"/></filter> <filter id="colorsf311408542"><feColorMatrix class="icon-fecolormatrix" values="0 0 0 0 0.99609375  0 0 0 0 0.99609375  0 0 0 0 0.99609375  0 0 0 1 0" type="matrix"/></filter> <filter id="colorsb9232137006"><feColorMatrix class="icon-fecolormatrix" values="0 0 0 0 0  0 0 0 0 0  0 0 0 0 0  0 0 0 1 0" type="matrix"/></filter></defs></g></g> <g transform="translate(0,9.599973678588867)"><g transform="translate(0,0)" class="tp-name iconsvg-namesvg" fill-rule="" data-gra="path-name" fill='#fff'><g transform="scale(1)"><g><path transform="translate(-4.190000057220459, 37.27000045776367)" d="M18.82 0.81L18.82 0.81Q15 0.81 12.26-0.3 9.52-1.4 7.72-3.39 5.92-5.38 5.06-8.07 4.19-10.76 4.19-13.98L4.19-13.98 4.19-37.27 11.02-37.27 11.02-14.63Q11.02-12.1 11.59-10.3 12.15-8.5 13.2-7.37 14.25-6.24 15.68-5.7 17.1-5.16 18.88-5.16L18.88-5.16Q20.65-5.16 22.1-5.7 23.56-6.24 24.6-7.37 25.65-8.5 26.22-10.3 26.78-12.1 26.78-14.63L26.78-14.63 26.78-37.27 33.61-37.27 33.61-13.98Q33.61-10.76 32.73-8.07 31.84-5.38 30.04-3.39 28.23-1.4 25.44-0.3 22.64 0.81 18.82 0.81ZM60.77-28.13L60.77-23.56Q59.7-22.43 57.95-20.38 56.2-18.34 54.21-15.84 52.22-13.34 50.2-10.62 48.19-7.91 46.57-5.43L46.57-5.43 61.09-5.43 61.09 0 38.72 0 38.72-4.03Q39.91-6.18 41.68-8.71 43.45-11.24 45.34-13.79 47.22-16.35 49.07-18.66 50.93-20.97 52.38-22.7L52.38-22.7 39.42-22.7 39.42-28.13 60.77-28.13Z"/></g>       <g transform="translate(59.900001525878906,0)" fill="#fff" data-gra="path-name-1"><g transform="scale(1)"><path transform="translate(-2.740000009536743, 37.27000045776367)" d="M11.19 0L2.74 0 2.74-25.49 10.76-25.49 11.02-23.23Q12.75-24.47 14.9-25.25 17.05-26.03 19.52-26.03L19.52-26.03Q22.1-26.03 23.56-25.25 25.01-24.47 25.81-23.07L25.81-23.07Q27.59-24.36 29.82-25.2 32.05-26.03 35.06-26.03L35.06-26.03Q39.53-26.03 41.63-23.72 43.72-21.4 43.72-16.67L43.72-16.67 43.72 0 35.17 0 35.17-15.65Q35.17-17.75 34.29-18.69 33.4-19.63 31.41-19.63L31.41-19.63Q30.17-19.63 28.99-19.12 27.8-18.61 27-17.69L27-17.69Q27.11-17.1 27.13-16.56 27.16-16.03 27.16-15.27L27.16-15.27 27.16 0 19.09 0 19.09-15.76Q19.09-17.69 18.42-18.66 17.75-19.63 15.87-19.63L15.87-19.63Q14.52-19.63 13.34-18.93 12.15-18.23 11.19-17.32L11.19-17.32 11.19 0ZM56.09 0.54L56.09 0.54Q53.67 0.54 51.6-0.32 49.53-1.18 48.29-2.98 47.06-4.79 47.06-7.48L47.06-7.48Q47.06-11.4 49.72-13.63 52.38-15.87 57.71-15.87L57.71-15.87 64.81-15.87 64.81-16.46Q64.81-18.39 63.51-19.23 62.22-20.06 58.67-20.06L58.67-20.06Q54.32-20.06 50.12-18.72L50.12-18.72 50.12-24.31Q52.01-25.06 54.72-25.55 57.44-26.03 60.45-26.03L60.45-26.03Q66.37-26.03 69.73-23.61 73.09-21.19 73.09-15.92L73.09-15.92 73.09 0 65.5 0 65.07-2.15Q63.68-0.86 61.5-0.16 59.32 0.54 56.09 0.54ZM58.84-4.79L58.84-4.79Q60.88-4.79 62.39-5.49 63.89-6.18 64.81-7.26L64.81-7.26 64.81-10.86 58.67-10.86Q54.86-10.86 54.86-7.8L54.86-7.8Q54.86-6.4 55.82-5.59 56.79-4.79 58.84-4.79ZM86.96 0L78.3 0 78.3-25.49 86.37-25.49 86.64-23.29Q88.2-24.36 90.57-25.2 92.93-26.03 95.62-26.03L95.62-26.03Q100.57-26.03 102.83-23.66 105.09-21.3 105.09-16.35L105.09-16.35 105.09 0 96.43 0 96.43-15.65Q96.43-17.8 95.51-18.72 94.6-19.63 92.23-19.63L92.23-19.63Q90.84-19.63 89.38-18.98 87.93-18.34 86.96-17.37L86.96-17.37 86.96 0Z"/></g></g></g></g> <g transform="translate(5,44.08000564575195)" fill="#F2AF08" class="tp-slogan iconsvg-slogansvg" fill-rule="" data-gra="path-slogan"><rect width="17.048702239990234" y="6.303999900817871" height="1" x="0"/> <rect x="135.20129776000977" width="17.048702239990234" y="6.303999900817871" height="1"/> <g transform="translate(20.048702239990234,0)"><g transform="scale(1.6200000000000006)"><path transform="translate(-0.896484375, 8.40234375)" d="M2.42-8.40L2.42-4.97L7.77-4.97L7.77-8.40L9.29-8.40L9.29 0L7.77 0L7.77-3.43L2.42-3.43L2.42 0L0.90 0L0.90-8.40L2.42-8.40ZM19.32-7.63L19.32 0L17.79 0L17.79-2.06L12.44-2.06L12.44 0L10.92 0L10.92-4.20Q10.92-5.12 11.23-5.89Q11.55-6.67 12.11-7.22Q12.67-7.78 13.44-8.09Q14.21-8.40 15.12-8.40L15.12-8.40L18.55-8.40Q18.71-8.40 18.85-8.34Q18.99-8.29 19.10-8.18Q19.20-8.07 19.26-7.93Q19.32-7.79 19.32-7.63L19.32-7.63ZM12.44-4.20L12.44-3.59L17.79-3.59L17.79-6.88L15.12-6.88Q15.05-6.88 14.82-6.86Q14.60-6.84 14.30-6.76Q14.00-6.67 13.68-6.50Q13.35-6.33 13.07-6.04Q12.80-5.74 12.62-5.29Q12.44-4.84 12.44-4.20L12.44-4.20ZM28.04-4.97L28.04-3.43L23.22-3.43L23.22-4.97L28.04-4.97ZM28.72-8.40L28.72-6.88L22.61-6.88L22.61 0L21.09 0L21.09-7.63Q21.09-7.79 21.15-7.93Q21.21-8.07 21.31-8.18Q21.41-8.29 21.55-8.34Q21.69-8.40 21.86-8.40L21.86-8.40L28.72-8.40ZM38.34-6.55L38.34-5.58Q38.34-5.06 38.21-4.65Q38.09-4.24 37.87-3.92Q37.65-3.61 37.36-3.39Q37.07-3.16 36.76-3.02Q36.45-2.88 36.13-2.81Q35.81-2.75 35.53-2.75L35.53-2.75L38.71 0L36.35 0L33.18-2.75L32.08-2.75L32.08-4.27L35.53-4.27Q35.81-4.29 36.05-4.39Q36.29-4.49 36.46-4.65Q36.63-4.82 36.73-5.05Q36.82-5.28 36.82-5.58L36.82-5.58L36.82-6.54Q36.82-6.67 36.79-6.74Q36.76-6.80 36.71-6.83Q36.66-6.87 36.60-6.87Q36.54-6.88 36.50-6.88L36.50-6.88L31.47-6.88L31.47 0L29.95 0L29.95-7.63Q29.95-7.79 30.01-7.93Q30.06-8.07 30.17-8.18Q30.27-8.29 30.41-8.34Q30.55-8.40 30.71-8.40L30.71-8.40L36.50-8.40Q37.01-8.40 37.36-8.22Q37.71-8.03 37.93-7.75Q38.15-7.48 38.25-7.15Q38.34-6.83 38.34-6.55L38.34-6.55ZM41.41-8.40L41.41 0L39.88 0L39.88-8.40L41.41-8.40ZM51.19-8.40L51.19-5.59Q51.19-5.07 51.06-4.66Q50.93-4.25 50.71-3.93Q50.50-3.62 50.21-3.40Q49.92-3.18 49.61-3.03Q49.29-2.89 48.98-2.82Q48.66-2.76 48.38-2.76L48.38-2.76L47.76-2.76L47.76 0L46.22 0L46.22-2.76L45.62-2.76Q45.33-2.76 45.01-2.82Q44.70-2.89 44.38-3.03Q44.07-3.18 43.78-3.40Q43.49-3.62 43.27-3.93Q43.05-4.25 42.92-4.66Q42.79-5.07 42.79-5.59L42.79-5.59L42.79-8.40L44.31-8.40L44.31-5.59Q44.31-5.29 44.41-5.05Q44.50-4.82 44.67-4.65Q44.84-4.48 45.08-4.39Q45.33-4.29 45.63-4.29L45.63-4.29L48.38-4.29Q48.59-4.33 48.82-4.39Q49.05-4.44 49.24-4.58Q49.42-4.71 49.55-4.95Q49.67-5.19 49.67-5.59L49.67-5.59L49.67-8.40L51.19-8.40ZM60.77-7.63L60.77 0L59.24 0L59.24-2.06L53.89-2.06L53.89 0L52.37 0L52.37-4.20Q52.37-5.12 52.68-5.89Q53.00-6.67 53.56-7.22Q54.12-7.78 54.89-8.09Q55.66-8.40 56.57-8.40L56.57-8.40L60-8.40Q60.16-8.40 60.30-8.34Q60.44-8.29 60.54-8.18Q60.65-8.07 60.71-7.93Q60.77-7.79 60.77-7.63L60.77-7.63ZM53.89-4.20L53.89-3.59L59.24-3.59L59.24-6.88L56.57-6.88Q56.50-6.88 56.27-6.86Q56.04-6.84 55.75-6.76Q55.45-6.67 55.13-6.50Q54.80-6.33 54.52-6.04Q54.25-5.74 54.07-5.29Q53.89-4.84 53.89-4.20L53.89-4.20ZM70.13-8.40L70.13-6.88L66.77-6.88L66.77 0L65.25 0L65.25-6.88L61.89-6.88L61.89-8.40L70.13-8.40Z"/></g></g></g></g></g><defs/></svg>